<?xml version="1.0" encoding="utf-8"?>
<!-- Generator: Adobe Illustrator 26.0.2, SVG Export Plug-In . SVG Version: 6.00 Build 0)  -->
<svg version="1.1" id="Layer_1" xmlns="http://www.w3.org/2000/svg" xmlns:xlink="http://www.w3.org/1999/xlink" x="0px" y="0px"
	 viewBox="0 0 240 324" style="enable-background:new 0 0 240 324;" xml:space="preserve">
<style type="text/css">
	.st0{fill-rule:evenodd;clip-rule:evenodd;fill:#FFFFFF;}
	.st1{fill-rule:evenodd;clip-rule:evenodd;}
</style>
<desc>Created with Sketch.</desc>
<g id="Introduction">
	<g id="variations" transform="translate(-2046.000000, -758.000000)">
		<g id="images" transform="translate(126.000000, 110.000000)">
			<g id="a-person_x2F_bust" transform="translate(1920.000000, 648.000000)">
				<g id="body_x2F_Coffee" transform="translate(31.056338, 135.052838)">
					<path id="_xD83C__xDFA8_-Background" class="st0" d="M83.3,0.7c5.2-4,18.3-5.8,23.9-1.9c5.5,3.8,6.1,10.1,8.7,15.8
						c2.4-1.1,6.4,0.5,7.1,2.7c0.9,1.1,0.9,4,1.5,5.5c26.1,4.2,30,24.5,33.2,47.6c4.2,23.4,13.6,46.8,9.5,70.9
						c0.5,0.8,1,1.5,1.3,2.4c0.9,1.6-0.3,3.8-2.1,3.7c-2.4-0.2-4.8-0.5-7.3-0.6c-6.8-0.2-13.6-0.2-20.3-0.1l-0.9,0
						c-34.1,0.4-68.3,1.3-102.4,1.5c-1.2,0-1.8-1.1-1.7-2.2c0.3-2.2,0.6-4.4,1-6.6c-8.1,2.1-16.7,2.7-24.7,0.2
						c-0.6-0.6,1.3-0.3,1.6-0.4c-7.4-5.1-5.2-15.7-4.5-23.4c4.1-26.3,5.5-55.5,21.3-78c6.8-9.2,16.8-16.4,28.3-18.1l0.3,0
						c3.4-0.4,7.1-0.6,10-2.4c3.3-2.6,4.7-7.5,8.2-7.6c1.1,0,2.7,1.4,4.4,2.4c0.1-2.2,1.3-4,1.6-5.7l0-0.1C81.4,4.3,81,2.5,83.3,0.7
						z M139.3,71c-7.3-5.1-26.3-2.5-26.7-2.2c-1,0.6-1.4,0.7-1.9,1.5c-0.5,0.1-1,0.1-1.5,0.2c-1,0.3-0.3,1.6,0.9,1.1
						c-0.7,3.1,1.4,5.2,2.2,8.3c0.3,1,0,2.7,0,3.8c0.1,1.3,1.5,2.8,1.3,4.1c-0.8,4.6-5.4,9-3.5,13.4c1.3,2.5,5.1,3.8,7.6,4.6
						c5.3,2,14.4-0.1,17.5-4.6c1.6-2.4,3.5-8.5,4.5-10.4l0.2-3C140.5,80.2,141,72.1,139.3,71z"/>
					<path id="_xD83D__xDD8D_-Ink" class="st1" d="M73.9,9.2c0.5-0.4,1.3,0.1,0.9,0.7c-0.7,1.4-1.5,2.7-2.4,3.9
						c-0.6,0.7-1.2,1.4-1.9,2.1c1.6,1.4,3,3.2,4.4,4.8c1.7,2.1,3.3,4.3,5.2,6.2c1.9,1.9,4,3.2,6.5,4.1l0.5,0.2
						c2.5,0.9,5.2,2.1,6.6,4.5c0.3,0.5-0.3,1.1-0.8,0.8c-2.5-1.5-5.4-1.8-8.1-2.8c-2.6-1-4.9-2.5-6.9-4.4c-2-1.9-3.7-4.1-5.4-6.2
						c-1.7-2.1-3.6-3.9-5.6-5.7c-3.2,2.1-6.8,3-10.4,4l-0.4,0.1c-3.7,0.9-7.3,2-10.8,3.5c-3,1.4-6,3.1-8.5,5.3
						c-2.6,2.4-4.7,5.5-6.5,8.5c-4.2,6.7-7.1,14.1-9.7,21.6C17.9,68.1,15.7,76,13.9,84c-0.9,4.1-1.7,8.2-2.3,12.3
						c-0.3,2-0.6,4-0.8,6c-0.2,2.1-0.3,4.3-1,6.4c-0.3,0.9-0.9,1.2-1.6,1.2l-0.1,1.7c-0.2,2.2-0.3,4.5-0.4,6.8
						c-0.1,3.8-0.1,7.5,0.2,11.3l0,0.5c0.2,2.7,0.7,5.8,2.7,7.8c2.1,2.1,5.4,2.7,8.3,2.8c6.7,0.1,13.1-3.1,19.1-5.9
						c6.1-2.9,12-6,17.8-9.5c2.9-1.8,5.9-3.6,8.7-5.4c1.4-0.9,2.8-1.8,4.2-2.8c0.8-0.5,1.6-1.1,2.4-1.6c-0.4-0.4-0.6-1-0.2-1.5
						c-2.3-2-3.3-5.7-3.4-8.6c-0.1-2.4,0.3-4.7,0.5-7.1c0.1-1.2,0.3-2.4,0.5-3.6c0.1-0.5,0.1-1,0.2-1.5c-6.3,3.5-12.9,6.6-19.6,9.3
						c-3.4,1.4-6.9,2.7-10.4,3.8l-0.7,0.2c-3.3,1.1-6.8,2.1-10.2,2.7c-0.2,0-0.3-0.2-0.1-0.3c3.4-1.5,6.8-2.7,10.3-4.1l0.6-0.2l0,0
						c-0.1,0-0.1,0-0.2,0c-2-0.5-4-1.2-5.9-1.9c-1.8-0.6-3.9-0.9-5.6-1.8c-0.1-0.1-0.1-0.2,0.1-0.3c1.9-0.1,4,0.4,5.9,0.8l0.7,0.1
						c1.2,0.2,2.4,0.4,3.6,0.7c0-0.4,0.3-0.8,0.6-1C41,99,40.7,93.8,41,90l0.3-2.8c0.5-4.9,1-9.9,1.8-14.8c0-0.3,0.4-0.2,0.4,0.1
						c0,6.1-0.4,12.1-0.6,18.2l0,1c-0.1,3.7-0.2,7.6-2.6,10.5c0.3-0.2,0.8-0.2,1,0.1c0.3,0.4,0.5,0.8,0.5,1.3
						c2.1-0.9,4.2-1.8,6.4-2.7c6.8-3,13.4-6.4,19.9-10c0.7-0.4,1.4-0.1,1.7,0.4l0,0c0,0,0,0,0,0l0,0c0,0,0,0,0,0
						c0.9-0.5,2.1-0.1,2.9,0.6c0,0,0,0,0.1,0.1c1-0.4,1.9-1,2.7-1.8c1.7-1.6,3.2-3.5,4.4-5.4c2.3-3.5,4.3-7.5,7.5-10.4
						c2.6-2.4,5.7-3.9,9.1-4.8c0-0.1,0-0.2,0.1-0.3c0.2-0.2,0.3-0.2,0.5-0.1c0,0,0,0,0,0l0.3-0.6c0.2-0.3,0.4-0.6,0.4-0.7
						c0.4-0.5,0.8-0.9,1.2-1.4c0.7-0.8,1.4-1.6,2.3-2.1c1.9-1.2,4-0.5,6,0.1c1.2,0.4,2.4,0.8,3.6,1.2l0.1,0c0.9,0.3,1.9,0.5,2.3,1.5
						c0.2,0.4,0.2,0.8,0.1,1.1c8.5-2.2,17.9-1.2,26.2,1.4c0.3,0.1,0.6,0.4,0.7,0.7c0.9,4.9,1.4,9.9,0.9,14.8
						c-0.4,4.3-1.3,8.5-3.1,12.4l-0.1,0.2c-1.7,3.6-4.3,8.1-8.4,9.2c-2.5,0.7-5.2,0.3-7.7,0.2c-2.4-0.1-4.9-0.1-7.3-0.5
						c-2.1-0.3-4-1.3-5.3-3c-1.1-1.5-1.7-3.3-2.2-5.1c-0.2,0.1-0.4,0.1-0.7,0.2c-0.9,0.4-1.7,1-2.4,1.6c-1.5,1.5-2.7,3.2-4.3,4.6
						c-1.4,1.3-3.1,2.2-4.8,3c-3.6,1.6-7.5,2.2-11.3,3l-0.3,0.1c-2.9,0.6-5.8,1.4-8.4,2.9c0,0.4-0.3,0.9-0.6,1.1
						c0.4,0.4,0.6,1.1,0.2,1.7c-1.1,1.7-3,2.7-4.7,3.9l-0.1,0.1c-1.7,1.1-3.4,2.2-5.1,3.3c-3.5,2.2-7,4.2-10.6,6.2
						c-5.8,3.1-11.6,6.1-17.6,8.8c0.4,1.8,0.2,3.6,0.5,5.4l0,0.3c0.1,0.7,0,1.2-0.5,1.6l0,0l0,0l0,0l0,0l0,0c-0.1,0-0.1,0.1-0.2,0.1
						l-0.1,0l0,0c-0.4,0.3-1,0.3-1.5,0l-0.1,0l-0.1,0c-0.6-0.3-1-1.2-0.8-1.9c0.6-1.7,0.8-3.4,1.4-5.1l-0.4,0.2l0,0l-0.6,0.3
						c-6.3,2.7-13.3,5-20.2,3.2c-3-0.8-5.9-2.6-7.4-5.4c-1.5-2.8-1.7-6-1.8-9.1c-0.1-3.8,0.1-7.7,0.6-11.5c0.3-2.6,0.7-5.1,1.4-7.7
						c-0.3-0.3-0.6-0.7-0.6-1.2c-0.3-2.4,0.2-4.9,0.5-7.3c0.3-2.3,0.7-4.7,1-7c0.8-4.7,1.7-9.4,2.8-14c1.9-8.3,4.4-16.4,7.4-24.3
						l0.3-0.7c2.8-7.3,6-14.3,10.5-20.7c2.2-3,4.4-5.8,7.5-8c2.8-2.1,6.1-3.5,9.4-4.7c3.3-1.1,6.7-1.9,10.2-2.4
						c3.5-0.5,7.2-0.8,10.5-2.2c-0.4-0.7-0.1-1.8,0.6-2.2C69.6,13.1,71.7,11.1,73.9,9.2z M149.2,76.9c0.1-0.1,0.3-0.1,0.3,0.1
						c-1.1,4.7-2.2,9.4-2.9,14.2c-1.3,8.6-1,17.4-0.9,26.1l0,0.4c0.1,4.7,0.1,9.4,0.3,14.1c0.1,2.4,0.2,4.8,0.1,7.1
						c0,1.3-0.4,2.5-0.5,3.8c-0.1,1.1,0,2.2,0,3.3c0,0.7-1.1,0.7-1.1,0l-0.1-0.9c-0.1-1.2-0.3-2.3-0.7-3.4c-0.5-1.3-0.7-2.6-0.8-4
						c-0.2-2.1-0.4-4.3-0.4-6.5l-0.1-1.5c-0.4-9-0.4-18.1,0.3-27.1l0-0.6C143.4,93.4,144.4,84.2,149.2,76.9z M124.8,23.2
						c-0.3-0.1-0.2-0.6,0.1-0.5l0.6,0.1c4.4,1.1,8.7,2.2,12.9,4.2c4.1,2,7.6,4.9,10.4,8.5c5.4,7,7.6,15.6,9.4,24.1
						c2,9.5,3.8,19,5.7,28.5l0.4,1.8c1.8,8.8,3.6,17.7,4.8,26.6l0.1,0.6c1.3,9.2,2.1,18.7,0.7,27.9c-0.3,1.8-3.3,1.4-3.2-0.4
						c0.3-5.2,0.6-10.4,0.4-15.6c-0.2-5.2-0.7-10.4-1.5-15.6c-0.6-4.4-1.5-8.6-2.3-13l-0.1-0.7c-0.7-3.7-1.4-7.3-2.1-11l-1-5.5
						c-1.6-8.2-3.2-16.5-5-24.6l-0.1-0.5c-1.8-7.9-4.4-16.1-9.6-22.3C140,29.5,132.3,26.3,124.8,23.2z M105.4,106.6
						c0.1-0.3,0.6-0.3,0.7,0c0.5,1,0.6,2.3,0.7,3.4l0,0.1c0.1,1.4,0.2,2.8,0.3,4.2c0.1,2.6,0.2,5.3,0.2,7.9c0,2.7-0.1,5.4-0.2,8.1
						l0,0.7c-0.1,2.3-0.4,5-1.5,7c-0.4,0.7-1.5,0.5-1.7-0.2c-0.8-2.5-0.4-5.4-0.2-7.9l0.2-2c0.2-2,0.3-3.9,0.4-5.9
						c0.2-2.7,0.3-5.4,0.4-8.1c0-0.9,0.1-1.8,0.1-2.6l0.1-1.3C104.9,108.8,104.9,107.6,105.4,106.6z M19.1,110.1l0.3-0.3
						c1-1,2.4-2.6,3.9-2.5c0.6,0,1,0.5,0.9,1.2c-0.3,1.3-1.6,2-2.5,2.8c-1,0.9-2,1.8-3,2.7c-0.9,0.8-1.7,1.7-2.5,2.6l-0.3,0.3
						c-0.3,0.3-2.4,2.2-2.1,2.7l0,0c0.1,0.1,0,0.2-0.1,0.2c-0.9-0.3-0.8-1.1-0.5-1.8c0.7-1.5,1.8-2.9,2.8-4.2
						C16.9,112.4,18,111.2,19.1,110.1L19.1,110.1z M108.6,72.5c-0.7-1.6-3.3-1.6-4.7-1.5c-3.7,0.2-7.6,1.2-10.9,2.9
						c-3.4,1.8-5.6,4.6-7.7,7.7l-0.1,0.1c-2,3.1-3.9,6.7-7,8.8c-1.6,1.1-3.4,2.1-5.3,2.5c-0.1,0.2-0.3,0.4-0.6,0.5l-0.1,0
						c-0.5,0.1-1.4,0.3-2.1,0.2c0,0.4,0,0.7,0,1.1c0,1,0,2,0,2.9c0,2-0.1,4.1,0,6.1c0.1,1.8,0.3,3.7,1.2,5.3c0.6,1.2,1.5,2,2.5,2.7
						c2.5-1.5,5.3-2.4,8.2-3.1c3.5-0.8,7-1.4,10.4-2.5c1.6-0.5,3.2-1.3,4.6-2.2c1.5-1,2.7-2.4,3.8-3.8l0.2-0.2
						c1.2-1.4,2.5-2.7,4.2-3.5c1.5-0.6,3.4-0.8,4.7-1.8c0.7-0.5,0.7-1.3,0.8-2.1c-0.8,0.1-1.7-0.1-2.5-0.2l-0.4,0
						c-0.8-0.1-1.5-0.2-2.3-0.4c-0.1,0-0.1-0.3,0-0.3c0.9-0.2,1.8-0.3,2.7-0.4l0.2,0c0.8-0.1,1.7-0.3,2.5-0.1
						c0.1-0.6,0.4-1.1,0.7-1.6c0.4-0.8,1.2-1.6,1.3-2.5c0-0.3,0-0.6-0.2-0.8l0-0.1c-0.1-0.1-0.1-0.2-0.2-0.2c0,0,0,0-0.1,0
						c-0.6,0.2-1.2-0.1-1.5-0.6c-1.2,0.2-2.6,0.1-3.8,0.2l-1.2,0.1c-1.3,0.1-2.6,0.1-3.7-0.2c-0.2,0-0.2-0.3,0-0.4
						c1.5-0.6,3.2-0.8,4.8-1.1c0.9-0.1,1.7-0.2,2.6-0.4c0.6-0.1,1.2-0.2,1.8-0.2c1.5-1.9,0.7-4.8-1.4-5.6c-0.8,0.3-1.4,0.1-2.3,0.1
						c-0.8-0.1-1.7-0.1-2.5-0.1c-1.7,0-3.4,0.4-5.1,0.3c-0.3,0-0.5-0.4-0.3-0.6c1.3-1,3.1-1.4,4.7-1.6l0.3,0
						c0.5-0.1,1.2-0.2,1.9-0.2c0.2-0.3,0.4-0.5,0.8-0.6c0.1,0,0.2,0,0.4,0l0,0l0,0C108.9,74.9,108.9,73.2,108.6,72.5z M39.3,104.5
						C39.3,104.6,39.3,104.6,39.3,104.5l-0.1,0.1L39.3,104.5L39.3,104.5L39.3,104.5z M126.3,68.9c-4.3-0.5-8.5-0.4-12.8-0.2
						c-0.3,1.1-1.5,2.1-2.7,2.1c0.9,1.4,1,3.2,0.4,4.7c1.3,0.5,2.5,1.5,3.2,2.9c1,1.9,0.8,4-0.1,5.8c0.8,0.7,1.3,2,1.3,3.1
						c-0.1,1.3-0.8,2.4-1.4,3.4c-0.7,1.1-0.7,2.1-0.9,3.4c-0.3,1.9-1.6,3-3.2,3.7L110,98c0.4,1.6,0.9,3.3,2.1,4.5
						c1.5,1.5,3.9,1.5,5.9,1.6l0.1,0c1.9,0.1,3.7,0.2,5.6,0.3l1.4,0.1c2.1,0.1,4.2,0.1,5.9-1.3c2.8-2.3,4.8-6.1,6-9.5
						c2.6-7.1,2.6-14.9,1.4-22.3C134.6,70.2,130.4,69.3,126.3,68.9z M90.8,80.6L90.8,80.6c0.9,0.1,1.5,0.8,1.7,1.7
						c0.3,1.2,0.2,2.3,0.9,3.4c0.8,1.1,1.2,2,1.4,3.5c0,0.6,0,1.2,0.2,1.7l0.1,0.4c0.1,0.4,0.2,0.8,0.1,1.3c0,0.4-0.2,0.7-0.7,0.9
						c-1.4,0.4-2.4-0.6-2.7-1.8c-0.3-1.1,0.1-2.4-0.3-3.4c-0.2-0.6-0.7-1-0.9-1.6c-0.2-0.6-0.4-1.2-0.4-1.8c-0.1-1.2,1-2.6,0.4-3.6
						C90.4,81,90.5,80.6,90.8,80.6z M72.9,68.6c0.9-0.2,2-0.6,2.9-0.3c0.5,0.2,0.7,0.7,0.3,1.1c-0.7,0.7-1.7,0.7-2.6,0.9l-0.1,0
						c-1.1,0.2-2.2,0.4-3.3,0.6c-2,0.3-4.1,0.6-6.2,0.9c-2.1,0.3-4.2,0.5-6.4,0.7l-0.8,0.1c-1.8,0.1-3.7,0.3-5.4,0
						c-0.3,0-0.2-0.4,0-0.5c1.9-0.6,4-0.7,6-1c2.1-0.3,4.2-0.5,6.3-0.9c2.1-0.3,4.2-0.7,6.3-1.1C71,69,71.9,68.8,72.9,68.6z
						 M105.9,66.7c-0.8-0.3-1.7-0.7-2.6-0.6c-1.5,0.2-2.8,1.7-4,2.7l0.6-0.1c3.1-0.6,7.1-1.2,9.7,0.7c0,0,0,0,0,0
						c0.2-0.3,0.4-0.6,0.7-0.8c0,0,0,0,0.1-0.1l0.1-0.2l-0.3-0.1c-0.7-0.2-1.5-0.6-1.6-0.6l0,0C107.7,67.3,106.8,67.1,105.9,66.7z
						 M80.8,2.7c-0.1-1.6,2.4-1.6,2.5,0c0.3,3.5-0.5,7-2.2,10c0,0,0,0,0,0.1c1.1,0.6,2.1,1.1,3.2,1.6c1.4,0.6,2.8,1.2,4.3,1.6
						c1.3,0.4,2.9,0.6,4,1.5c2.3,1.9,1.5,5.7,1,8.2l-0.1,0.4c-0.2,1.3-0.4,2.6,0.2,3.8c0.6,1.3,1.7,2.3,2.8,3.2l0.2,0.2
						c0.9,0.8,2,1.9,2.7,3c0.6-1.3,1.5-2.3,2.4-3.5c0.6-0.8,0.2-1.1-0.3-1.9c-0.4-0.8-0.7-1.6-0.5-2.5c0.3-1.7,1.6-2.9,2.9-3.8
						c1.6-1.1,3.3-1.9,4.9-2.9c3.3-2,6.6-4.4,9.5-7c0.1-0.1,0.2,0,0.2,0.1c-2.3,3.5-5,6.5-8.3,9.1c-1.3,1-2.8,1.9-4.2,2.8l-0.4,0.3
						c-0.6,0.4-1.3,0.9-1.5,1.5c-0.3,0.6,0.3,1.1,0.6,1.6c0.9,1.7,0.5,3.2-0.6,4.6l-0.1,0.1c-1.1,1.4-2,2.7-2.4,4.4
						c-0.9,3.8,0.3,7.7,1.6,11.3l0.1,0.1c0.7,1.9,1.4,3.8,2,5.8l0.2,0.5c0.5,1.8,1,3.6,0.4,5.4c-0.2,0.6-1.1,0.8-1.4,0.2
						c-1.2-2.1-1.6-4.6-2.3-6.9c-0.8-2.2-1.6-4.4-2.4-6.6c-0.9-2.9-1.6-6-1.2-9c0,0,0,0,0-0.1l-0.2-0.5c-0.7-1.4-1.3-2.7-2.5-3.8
						C94.3,34.5,93,33.5,92,32c-2.1-3.1-0.8-6.6-0.6-10l0-0.4c0-0.7,0.1-1.7-0.4-2.2c-0.5-0.6-1.7-0.7-2.4-0.9
						c-1.8-0.6-3.6-1.4-5.2-2.3c-1.6-0.8-3.1-1.8-4.6-2.9l-0.7-0.5c-1.2-0.9-2.3-1.8-3.1-3c-0.1-0.1,0.1-0.4,0.2-0.3
						c1.3,0.5,2.5,1.4,3.7,2.1c0,0,0-0.1,0.1-0.1C80.4,8.8,81.1,5.8,80.8,2.7z M122,21.2c0.5-1.4,2.9-1.3,2.8,0.4
						c-0.1,1.3-0.6,2.4-1.1,3.6l-0.1,0.1c-0.5,1.2-1.1,2.4-1.8,3.5c-1.4,2.1-3,4.1-4.7,6c-1.5,1.7-3.6,2.7-5.9,2.6
						c-1-0.1-2-0.3-2.8-0.8c-1-0.6-2.1-2.3-3.4-1.9c-0.1,0-0.2-0.1-0.1-0.2c1.5-1.2,3.2,0.7,4.7,1.1c2.2,0.7,4.4-0.1,5.8-1.8
						c1.5-1.8,2.8-3.9,4-5.9c0.6-1,1.2-2.1,1.7-3.2C121.5,23.5,121.6,22.3,122,21.2z M118.5,12.5c-0.1-0.2,0.2-0.4,0.3-0.3
						c1,0.6,1.8,1.5,2.8,2.2c1,0.8,2,1.6,3.1,2.4c1.5,1.2-0.2,3.3-1.6,2C121.3,17.2,119.3,15,118.5,12.5z M113.1,5.7
						c0.4-1.6,2.8-0.9,2.4,0.6l0,0c-0.7,2.5,0.3,5.1,2.3,6.8l0.1,0.1c1.3,1-0.5,2.8-1.8,1.8C113.3,12.8,112.2,9.1,113.1,5.7z"/>
				</g>
				<g id="head_x2F_mono_x2F_hat-beanie">
					<path id="Path" class="st0" d="M129.6,50.5c10.1,0,22.3,4.7,23.3,4.8l0,0c0.5,0,2.7,1.6,6.4,4.7l-4,7.5l0.3,0.3
						c1.6,1.4,2.9,2.7,3.9,3.8c8.5,8.4,10.1,41.4,8.1,52.9c-2,11.5-5.7,22.8-23.1,22.8s-36.7-10-39.7-13.2c-2-2.1-4.2-3.1-6.7-3
						c-0.1-0.1-0.2-0.2-0.3-0.4l-0.4,0c-3.4-0.5-5.9-1.1-7.4-1.9c-2.9-1.6-6.1-9.9-6.1-11.7c0-1.8-4.8-14.9-4.8-16.3l0,0
						c0-1.2-6.2-6.5-6.2-8.2c0-1.7-1.3-1.6,0-7.6l0.4-1.8c1.3-6.4,3.9-16.9,13.9-21.5C98.1,56.6,119.3,50.5,129.6,50.5z"/>
					<path id="_xD83D__xDD8D_-Ink_00000004514311146674899980000005446573674594923174_" class="st1" d="M85.5,61.4
						c5.4-5.6,36.4-14.2,52-12.3l0.5,0.1c1.2,0.2,2.5,0.4,3.7,0.7c3.9,0.9,8,2.2,11.2,4.4c2.7,1.8,11.2,4.8,8.7,9.6
						c0.9,1.7,1.3,3.8,0.7,5.5c-0.1,0.6-0.3,1.1-0.5,1.7c2,2.8,3.6,6,4.9,9.1c2.2,7.7,3.6,15.6,3.8,23.5c0.7,14.9-1,32.6-14.5,42.2
						c-8.1,6.1-20.8,6.3-30-1.3c-0.5-0.6-3-2.2-2.1-2.5c0.2,0.2,0.5,0.5,0.7,0.7c0,0,0-0.1,0-0.1l-0.2-0.2c-0.4-0.4-1-1-0.4-0.9
						c0,0,0.1,0.1,0.1,0.1c0.1,0.1,0.2,0.2,0.3,0.2l0,0l0,0c-0.4-0.4-0.6-0.8,0-0.5l0.1,0c0.3,0.3,0.5,0.5,0.8,0.7c0,0,0-0.1,0-0.1
						l-0.2-0.2c-0.2-0.2-0.2-0.2-0.1-0.4c-0.5-0.7,0.4-0.3,0.5,0c0.6-0.1,1.1,0.9,1.5,1.1c16.7,12.4,41,1.4,40.6-33.1l0-0.7
						c-0.1-11-1.1-22.4-5.8-32.3c-0.5-1-1-1.9-1.5-2.8c-0.4-0.7-0.8-1.3-1.3-2c-1.3-0.1-2.5-0.3-3.7-0.7c-0.4-0.1-0.8-0.2-1.3-0.3
						c-6.1,0.3-12,0.7-18.1,1l-1.9,0.1c-5.2,0.3-10.5,0.8-14.7,3.9c-4.1,2.8-4.1,8.3-7.6,11.4c-5,3.3-5,6.2-6,11
						c0.1,3.6,2.7,8.9-2.1,10.4c0.8,1.1-0.3,0.6-0.4,0.2c0,0,0,0,0,0c0.7,1.3-0.3,0.5-0.4,0.1c-0.1,0-0.1-0.1-0.2-0.1
						c0.7,1.1-0.4,0.3-0.4,0.1c-1.4-2.1-4.3-2.4-6.3-1.8c0,0.1-0.1,0.1-0.2,0c-8.6,1.8-6.4,19,2.4,17.4c0.4-0.1,0.4,0.1,0.4,0.1
						c-0.2-0.5,0.4-0.3,0.4-0.2l0,0c0,0,0,0,0,0c-0.2-1.1,0.9,0.5,0.8,0.5c0,0,0.1,0,0.1,0l0-0.1c-0.2-0.5-0.2-0.3-0.2-0.5
						c-0.1-0.3-0.1-0.2-0.1-0.4c0.5-0.4,0.6,0.7,0.8,0.8c-0.3-0.4-0.1-0.7,0.2-0.5c2,4,4.6,7.8,7.9,10.8c0.4,0.3,0.7,0.5,1.1,0.8
						c1.4,1.2,3.6,2,4.9,3c0,0,0,0,0,0.1l0,0l0,0l0,0l0.5,0.2c0.1,0.1,0.3,0.2,0.4,0.4c0.1,0.1,0.2,0.3,0.3,0.4
						c0,0.2-0.1,0.3-0.2,0.2c-0.1,0-0.2-0.1-0.2-0.1c0,0,0,0,0,0c0,0,0.2,0.4,0,0.4l0,0c-0.1,0-0.2-0.1-0.3-0.1
						c0.1,0.2,0.2,0.3,0.4,0.5c0.1,0.1,0.2,0.2,0.2,0.4c0,0.1-0.1,0.1-0.1,0.1c-0.1,0-0.3-0.1-0.4-0.1l0,0.1c0.1,0.2,0.2,0.5,0,0.4
						c-0.2-0.1-0.4-0.1-0.6-0.2c0,0,0,0-0.1,0c-0.6-0.2-1.2-0.5-1.7-0.8c-0.5-0.3-1-0.7-1.5-1c-0.5-0.3-0.9-0.6-1.3-0.9
						c-2.9-1.8-5.4-4-7.3-6.5c-3.3,2.8-10,0.1-14.1-2c-3.6-1.9-5.1-5.5-5.4-9.4c-0.8-5.2-5.2-7-4.9-18.4c0,0,0,0,0,0
						c-0.2,0-0.3-0.1-0.5-0.2c-0.2-0.1-0.3-0.2-0.4-0.3l-0.2-0.2l0,0c-0.1,0-0.2-0.1-0.2-0.1l0,0c-0.1,0.1,0-0.1,0-0.1l-0.3-0.4
						c-0.7-0.9-1.4-1.9-2-2.7l0,0c0,0,0,0,0,0.1c-1.4-2-2.8-4.4-3.2-6.7c-0.4-1.8-0.3-3.7,0.1-5.3C72.9,80.2,78.3,67,85.5,61.4z
						 M124.8,142.1L124.8,142.1L124.8,142.1c0,0.1,0.1,0.1,0.1,0.2c0,0,0,0,0,0C124.9,142.2,124.8,142.2,124.8,142.1z M137.5,52
						c-10.6-0.9-21,1.4-31.2,4.1l-0.7,0.2c-5.8,1.6-11.8,3-16.7,6.4c-6.8,5-10.3,13-13.4,20.3c-2.7,5.5-1.3,11.6,2.7,15.4
						c0.4-3.8,1.1-7.5,2.3-11.1c0.2-0.6,0.1-0.8,0.6-0.8c0.8,9.8-3,17.1,4.4,28.8c3.2,5.5-0.5,9.5,8.6,12.4l0.2,0.1
						c1.9,0.7,4,1.2,5.8,0.8l-0.2-0.3c-0.2-0.3-0.2-0.4,0-0.5c0,0,0,0,0,0c-0.2-0.4-0.4-0.7-0.6-1.1c-0.1,0-0.1,0-0.2,0.1
						c0,0.1,0.1,0.2-0.1,0.2c-0.5,0.2-1,0.2-1.5,0.2l-0.1,0c-0.6,0-1-0.1-1.3-0.2c-0.1,0-0.2,0-0.3-0.1c-1.1-0.2-2.2-0.8-2.9-1.4
						c-8.4-4.6-7.5-20.2,2.8-21.6c0.2-9.8,5.1-26.4,13.1-35.7c7.3-8.6,27.2-12.3,41-11c0.2,0.1,0.4,0.1,0.6,0.2
						c2.1,0.2,4.2,1.1,6.3,1.5c-1.5-1.1-3.3-1.8-5.1-2.5c-3.6-2.1-7.7-3.2-11.6-4C139.1,52.1,138.3,52,137.5,52z M95.1,111.7
						c0.6-0.3,0.5,0,0.6-0.1c4-0.3,8.3,3.1,10.5,5.9c-0.2,0.2-0.7-0.3-0.7-0.4c0,0,0,0,0,0l0.1,0.1c0.9,1.2-0.9-0.2-1.1-0.5
						c0,0-0.1,0-0.1,0c0.1,0.1,0.6,0.5,0.7,0.7l0.1,0.1c1.1,0.9,1,1.6-0.2,0.3c0,0.1,0,0.1,0,0.2l0,0c0.6,0.4,1.1,1.5-0.2,0.4
						c0.1,0.9-1.3-0.8-1.3-0.8c-2.4-1.8-5.9-3.6-8.9-3.8l-0.1,0c-0.6-0.1-0.8-0.2-0.6-0.6c-0.7-0.2-0.5-0.5-0.2-0.5
						c-0.5-0.3,0-0.6,0.2-0.5c-0.2-0.5,0.6-0.2,0.6-0.2C95,111.3,95.1,111.8,95.1,111.7z M86.8,80.1c1.9-0.7,7.6,1.3,7.1,4
						c-0.3,0.6-1.2,1-1.8,0.6l-0.8-0.5c-1.4-0.9-2.7-1.7-4.2-2.5C86.2,81.3,85.9,80.4,86.8,80.1z M97.7,76.1l-0.7-0.5
						c-4-2.5-9.7-6.3,0.4-2.4c1.1,0.5,2.7,0.8,3.3,1.8C101.6,77,99,77.1,97.7,76.1z M98.1,64.8c-0.3-1.2,3.7,0.2,4.8,0.6l0.2,0.1
						c1.1,0.4,2.4,0.8,3.1,1.7c0.8,1.3-0.8,1.6-1.8,1C102.4,66.8,100.2,65.9,98.1,64.8z M108.3,59.3c-2.2-2.4,3.8-0.1,4.7,0.5l0,0
						c0.7,0.5,0.5,1.4-0.1,1.7C111.1,61.6,109.8,60.2,108.3,59.3z M118.5,56.7c-3.6-2.5,1.1-1.3,2.8-0.3
						C122.4,57.4,121.3,59,118.5,56.7z"/>
				</g>
				<g id="face_x2F_Cheeky" transform="translate(112.183099, 77.354207)">
					<path id="_xD83D__xDD8D_-Ink_00000160874658102794155700000014862533478060473278_" class="st1" d="M35.3,46.8
						c0.3-0.6,1.1-1.1,1.8-1c3.1,0.4,3.1,4.1,1.9,6.2c-1,1.9-3.2,3-5.4,2.9c-2.3-0.2-4.2-1.5-5.1-3.6c-0.6-1.4-0.8-4,0.7-5
						c0,0,0.1,0,0.1,0c0.7,0.8,0.7,2.1,1.4,3c0.6,0.9,1.5,1.6,2.6,1.7c0.8,0.1,1.6-0.2,1.9-0.9c0.2-0.4,0.1-0.6,0.1-0.9L35.1,49
						C34.9,48.2,34.8,47.6,35.3,46.8z M36.1,30.5c1.6,1,4,3.2,2.3,5.6c-2,2.1-4.9-0.3-6.4-1.4c-1.3-0.9-2.8,1.3-1.6,2.3
						c10.4,7.7,14.6-6.3,6.4-7.7C36,29.2,35.7,30.2,36.1,30.5z M19.2,23.9c1-1.5,3.2-1.3,3.8,0.5c0.3,0.9-0.1,1.8-0.1,2.7
						c0,0.8,0,1.7-0.3,2.5c-0.6,1.8-2.1,3-4,3c-1.9-0.1-3.5-1.2-4.3-2.9c-0.8-1.7-0.6-3.4,0-5.1c0-0.1,0.1-0.1,0.2-0.1
						c0.7,0.7,1.2,1.5,1.7,2.3l0.5,0.8c0.4,0.6,1,1.4,1.7,1.4l0.1,0c0.2,0,0.2,0,0.3-0.3c0.1-0.1,0.1-0.4,0.1-0.5l0-0.1l0,0l0,0
						c0-0.1,0-0.2,0-0.5l0-0.1C18.9,26.4,18.5,24.9,19.2,23.9z M44.1,24.8c-0.2-1.9,2.5-2.3,3.3-0.9c0.5,0.7,0.6,1.6,0.7,2.5l0,0.4
						c0.1,0.9,0.1,1.8-0.2,2.6c-0.6,1.3-1.9,2-3.3,1.9c-1.4-0.1-2.6-0.9-3.2-2.1c-0.6-1.1-1.2-3.1-0.5-4.3c0-0.1,0.1-0.1,0.2,0
						c0.7,0.6,0.8,1.7,1.2,2.4c0.4,0.8,1,1.6,2,1.7c0.9,0.1,1.2-0.4,1-1.2C44.9,26.8,44.2,26,44.1,24.8z M20,12.7l0.4-0.2
						c1.5-0.6,3.5-1.2,4.7,0c0.7,0.7,0.9,1.8,0.4,2.7c-0.6,1.1-1.8,1.1-2.9,1.3c-1.3,0.2-2.6,0.5-3.7,1c-1.3,0.6-2.6,1.3-3.8,2
						c-1.1,0.7-2.3,2-3.7,2.2c-0.1,0-0.1,0-0.1-0.1c-0.3-1.3,0.6-2.7,1.3-3.7c0.9-1.3,2.1-2.3,3.3-3.2C17.1,13.9,18.5,13.2,20,12.7z
						 M46.8,17.5l0.1,0c0.9-0.1,1.7-0.1,2.4,0.6c0.5,0.5,0.7,1.2,0.5,2c-0.2,0.7-0.7,1.3-1.5,1.5c-2.5,0.5-5.2,0.4-7.7,0
						c-1.1-0.2-2.3-0.4-3.4-0.7l-0.5-0.1c-0.9-0.3-2-0.5-2.7-1.2c-0.2-0.2-0.1-0.6,0.2-0.7c1.2-0.5,2.8-0.2,4.1-0.3
						c1.5,0,2.9-0.2,4.4-0.3C44.1,18,45.4,17.7,46.8,17.5z"/>
				</g>
				<g id="facial-hair_x2F_Full" transform="translate(104.577451, 109.479380)">
					<path id="_xD83D__xDD8D_-Ink_00000029007398168924268180000009195355021364023978_" class="st1" d="M24.9,20.1
						c1.7-4,5.4-7,9.7-8c3.2-0.8,6.5-0.8,9.7-0.5c1.7,0.2,3.5,0.3,5.1,0.9c1.4,0.5,2.5,1.5,3.3,2.7c1,1.4,1.7,3,2.1,4.7
						c0.1,0.2,0.1,0.5,0.2,0.7c-0.2,1.2-0.6,2.3-1.8,3.1c-1.1,0.8-2.5,1.1-3.8,1.2c-0.1-0.1-0.3-0.1-0.4-0.2c-2.1-1.2-3.6-4-6.2-3.6
						c-2.3,0.3-3.9,3.3-5.3,5c-4.5,0.5-9-0.8-12.6-3.4C24.8,21.9,24.7,21,24.9,20.1 M58,17.1c-0.4-1-0.8-2-1.3-2.9
						c-1.8-3-4.5-5.5-7.7-6.8c-7.6-3.3-17.5-1-23.7,4.4c-2.1,1.8-4.2,4.5-4.9,7.4c-0.2,0-0.4,0.1-0.5,0.3c-4.5-2.8-9-5.5-12.6-9.4
						C4.7,7.2,2.9,3.9,1.8,0.2C1.7-0.1,1.2-0.1,1.2,0.3c0,0.1,0,0.2,0,0.2c0-0.1-0.3-0.1-0.3,0.1C0.3,5-0.4,9.8,0.3,14.3
						c0.4,2.7,1.6,4.6,3.3,6.8c1.7,2.3,3.7,4.4,5.7,6.4c1.3,1.3,2.6,2.8,4.2,3.7c1.8,1.1,3.9,1.9,5.8,2.8c2,0.9,4,1.7,6,2.3
						c4.1,1.4,8.3,2.3,12.6,2.8c3.4,0.3,7.4,0.7,10.7-0.6c2.5-1,4.6-2.8,6.2-4.9c1.8-2.4,3.2-5,3.9-7.9C59.5,22.7,58.2,17.6,58,17.1
						"/>
				</g>
				<g id="accessories_x2F__x2A_-None" transform="translate(88.521127, 88.978474)">
				</g>
			</g>
		</g>
	</g>
</g>
</svg>
