<svg xmlns="http://www.w3.org/2000/svg" xml:space="preserve" id="Capa_1" x="0" y="0" style="enable-background:new 0 0 390.4 390.4" version="1.1" viewBox="0 0 390.4 390.4">
<style>.st0{fill:#33a3a3}</style>
<path d="M323.4 211.6c-9.9-12.1-26.1-18.7-47-19.2-.6-5-4.8-8.8-9.9-8.8h-200c-5.5 0-10 4.5-10 10v116c0 23 12.9 43.7 33.6 53.9-1 2.4-1.5 4.9-1.5 7.5 0 10.8 8.7 19.5 19.5 19.5h117c10.8 0 19.5-8.7 19.5-19.5 0-2.6-.5-5.1-1.5-7.5 17.7-8.7 29.7-25.1 32.8-44.1 17.1-3.8 31.6-13.6 42.5-28.9 10.1-14.2 13.5-28.2 13.8-29.8l.1-.3c4-20.4 1-36.7-8.9-48.8zm-20.6 42.5c-.3 1-2.7 10.1-9 18.9-4.9 6.8-10.6 11.7-17.3 14.7v-65.3c7.5.3 18.5 1.8 23.7 8.2 3.9 4.7 4.8 12.6 2.6 23.5zM122.3 71.2c16.2 1.9 32.8 2.1 46.9 2.1 4.6 0 9.1 0 13.7-.1 7.1 0 14.2-.1 21.3 0h1.1c1.8 0 3.9 0 6.1-.1 2.3 0 4.7-.1 6.9-.1-4.4.9-9.7 1.8-14.4 2.7-9.6 1.7-19.4 3.5-26.5 5.2l-1.3.3c-13.8 3.3-34.7 8.2-41.4 23.1-2.6 5.7-2.5 12.3.5 18 3.1 6 9 10.3 15.6 11.4 2.3.4 4.8.8 7.5.8 4.4 0 8.8-.4 13-1.2 21.8-4.3 21.9 1.4 21.9 2 .1 3.7-7.1 10.1-10.2 12.8-.7.6-1.2 1.1-1.6 1.5-.8.8-1.7 1.6-2.8 2.5-6.2 5.6-14.8 13.2-13.7 21.5.1 1 1 1.8 2 1.8h.1c1 0 1.9-.8 1.9-1.9.2-3.4 3.6-6.4 6.7-9 3-2.4 6.2-4.6 9.3-6.8l3.9-2.7.1-.1c5.7-4.1 15.2-10.9 16.5-19 .5-3.3-.3-6.4-2.5-9.3-6-8.1-16.8-8.8-26.5-8.8h-.8c-1.7 0-3.4 0-5.2.1-1.8 0-3.6.1-5.4.1-3.1 0-5.6-.1-7.8-.4-4.5-.6-6-3-5-4.8 3.1-5.4 19-10.1 47.5-13.8 1.6-.2 2.8-.4 3.6-.5 1.8-.3 3.5-.5 5.3-.8 10.1-1.5 20.6-3.1 30.6-6 17.8-5.3 21.2-14.3 20.8-21.1V69.9c-.8-7.1-5.7-12.9-13.5-15.9-11.3-4.4-24.5-4.4-36.2-4.5h-3.1c-10-.1-20.1.2-30 .4-8.6.2-17.5.4-26.2.4s-16.4-.2-23.5-.6c-5.5-.3-11.9-.8-18.4-2-4.9-.9-11-2-14.8-5.3-3.5-3 .1-9.5 2.6-12.5 7.3-9.2 20.1-13 31.6-15.5 10.6-2.3 22.1-3.5 36.4-3.9 9.2-.2 18.1 0 26.6.7h.2c1.1 0 2-.9 2-2 0-1-.7-1.8-1.6-2C175.5 2.5 158.2 0 141.6 0c-5.1 0-10.2.2-15.1.7-19 1.8-43.3 8.6-51.5 30.8-2.8 7.5-2.4 14.3 1.2 20 7.8 12.8 29.4 17.8 46.1 19.7z" class="st0"/>
<text style="font-size:112.9855px;font-family:&quot;MyriadPro-Regular&quot;;fill:#fff" transform="matrix(.9824 0 0 1 111.908 308.57)">
EB
</text>
</svg>